<?xml version="1.0"?><svg width="640" height="480" xmlns="http://www.w3.org/2000/svg">
 <title>sunglasses</title>
 <metadata id="metadata7">image/svg+xml</metadata>
 <g>
  <g id="g4808">
   <path d="m506.519287,148.487015c-51.510132,0.304337 -101.148865,14.505127 -151.708344,20.183258c-21.102264,2.370941 -42.850586,2.95163 -63.988007,0.748398c-28.103516,-2.931473 -55.312683,-10.715027 -83.398514,-14.203888c-25.098434,-3.116241 -50.511963,-6.372208 -75.768829,-6.502625c-44.137436,-0.229782 -86.826035,11.958725 -130.095592,18.538971c0,11.163757 -2.571995,25.491852 3.897583,33.339081c6.673779,8.092575 17.929955,15.494171 20.850506,26.460754c6.923759,26.010437 16.754005,51.505371 29.323448,75.947662c6.108665,11.87793 17.637733,20.159943 30.511734,25.864502c31.001106,13.736511 67.693703,15.756531 101.703438,11.437012c48.432892,-6.151703 74.709015,-38.203644 94.755005,-74.82663c7.50293,-14.887054 8.340881,-32.067429 18.222168,-45.673599c5.869232,-8.080093 19.498535,-4.679749 29.238983,-4.709244c14.50766,-0.043472 17.996826,14.259796 21.01947,23.771469c10.698151,33.660507 28.53656,69.373642 63.988068,87.010513c52.941345,26.338074 136.345123,21.411438 170.69455,-26.088074c13.442627,-18.59024 17.155396,-41.145996 23.899536,-62.19252c4.105347,-12.814209 7.773987,-28.089462 22.375,-35.133957c5.89209,-2.842957 1.756897,-14.186829 2.626587,-20.781052c0.948914,-7.184235 2.776184,-13.539337 -8.814392,-14.949188c-20.215027,-2.462555 -39.824463,-9.949524 -60.513062,-12.483505c-19.605774,-2.401978 -38.815552,-5.873795 -58.819336,-5.757339zm-340.538849,11.960297c14.62207,-0.080765 29.182556,0.863266 43.394547,3.513702c84.676529,15.796936 86.389481,46.567886 51.529495,110.184189c-28.404541,51.837677 -87.246841,64.825836 -146.538025,52.39975c-27.332405,-5.726257 -46.021095,-22.554169 -54.835571,-45.597473c-9.303864,-24.321136 -16.340279,-50.160797 -14.747093,-75.724075c2.133614,-34.230316 46.031639,-39.040527 77.464088,-42.159851c14.423172,-1.430008 29.112167,-2.533936 43.732559,-2.616241zm309.180389,0c14.622131,0.082306 29.309326,1.186234 43.732483,2.616241c31.432434,3.119324 75.332275,7.929535 77.464172,42.159851c1.59314,25.563278 -5.443298,51.402939 -14.747192,75.724075c-8.814392,23.043304 -27.503052,39.871216 -54.83551,45.597473c-59.289429,12.426086 -118.131714,-0.562073 -146.538025,-52.39975c-34.859955,-63.616302 -33.147034,-94.387253 51.53125,-110.184189c14.211945,-2.650436 28.770721,-3.594467 43.392822,-3.513702z" stroke-width="1px" stroke="#000000" fill="#000000" id="path2830"/>
   <path d="m122.237305,163.089966c28.846375,-2.861588 58.697937,-4.409622 87.121841,0.892776c84.676498,15.796951 86.38414,46.570999 51.525894,110.187302c-28.406219,51.837677 -87.216843,64.828918 -146.508041,52.404449c-27.33239,-5.727905 -46.031639,-22.614777 -54.846115,-45.65802c-9.303864,-24.321167 -16.379021,-50.146835 -14.785828,-75.708588c2.131866,-34.231873 46.059814,-39.000153 77.492249,-42.11792l0,0z" stroke-width="1px" stroke="#000000" fill="#000000" opacity="0.85" id="path2832"/>
   <path d="m518.877502,163.089966c-28.848145,-2.861588 -58.697937,-4.409622 -87.123566,0.892776c-84.676575,15.796951 -86.384186,46.570999 -51.5242,110.187302c28.404541,51.837677 87.216888,64.828918 146.506348,52.404449c27.332397,-5.727905 46.033447,-22.614777 54.847839,-45.65802c9.302124,-24.321167 16.379028,-50.146835 14.785828,-75.708588c-2.133606,-34.231873 -46.059814,-39.000153 -77.492249,-42.11792l0,0z" stroke-width="1px" stroke="#000000" fill="#000000" opacity="0.85" id="path2832-1"/>
  </g>
  <title>Layer 1</title>
 </g>
</svg>